<?xml version="1.0" standalone="no"?>
<!DOCTYPE svg PUBLIC "-//W3C//DTD SVG 20010904//EN"
 "http://www.w3.org/TR/2001/REC-SVG-20010904/DTD/svg10.dtd">
<svg version="1.0" xmlns="http://www.w3.org/2000/svg"
 width="375.000000pt" height="666.000000pt" viewBox="0 0 375.000000 666.000000"
 preserveAspectRatio="xMidYMid meet">

<g transform="translate(0.000000,666.000000) scale(0.100000,-0.100000)"
fill="#000000" stroke="none">
<path d="M1145 4771 c10 -19 21 -46 25 -60 5 -14 38 -91 74 -170 36 -80 66
-149 66 -153 0 -17 -69 61 -90 102 -12 23 -23 40 -26 38 -2 -3 5 -37 16 -76
23 -83 23 -82 11 -82 -5 0 -44 48 -87 107 -44 59 -96 125 -116 145 -21 21 -38
43 -38 50 0 6 -3 9 -6 6 -3 -3 4 -24 15 -47 12 -22 21 -45 21 -50 0 -6 14 -34
31 -62 18 -28 33 -63 35 -78 2 -14 13 -48 24 -75 12 -26 20 -50 17 -52 -2 -3
-26 22 -53 55 -39 49 -50 57 -57 45 -6 -11 -2 -25 13 -46 12 -16 34 -48 49
-71 15 -23 46 -70 69 -105 22 -34 44 -72 48 -84 4 -13 31 -60 60 -106 68 -105
71 -125 13 -79 -84 65 -89 68 -83 53 3 -9 11 -16 17 -16 6 0 7 -3 4 -7 -4 -3
1 -15 10 -26 10 -11 12 -17 6 -13 -8 4 -13 2 -13 -5 0 -8 -4 -8 -12 -1 -7 5
-33 13 -57 17 -24 4 -64 17 -90 28 -25 12 -49 20 -53 19 -5 -1 -8 2 -8 7 0 5
-8 12 -17 16 -13 4 -10 -2 8 -22 15 -15 24 -34 21 -42 -3 -9 0 -11 8 -6 10 6
12 4 7 -9 -5 -14 -3 -16 12 -11 11 3 28 -3 42 -14 28 -24 14 -28 -18 -6 -44
31 -30 -3 25 -63 53 -56 162 -132 254 -175 42 -20 52 -21 42 -6 -4 7 -1 10 6
7 7 -2 15 -13 16 -25 5 -31 -39 -36 -68 -9 -22 21 -86 66 -92 66 -2 0 -6 -7
-9 -14 -4 -10 -1 -13 9 -9 7 3 14 0 14 -6 0 -22 -37 -10 -83 25 -25 20 -49 44
-52 53 -3 9 -22 28 -43 42 -25 18 -43 43 -56 77 -11 28 -23 49 -26 47 -3 -2
-50 12 -105 30 -54 19 -102 32 -107 29 -4 -3 -8 -1 -8 4 0 6 -8 8 -18 5 -14
-3 -280 119 -393 182 -14 8 -29 12 -32 9 -3 -3 -19 2 -36 11 -17 8 -31 12 -31
8 0 -8 12 -16 100 -72 l35 -23 -30 6 c-16 3 -41 8 -55 12 -14 3 3 -11 38 -31
34 -20 62 -41 62 -46 0 -6 15 -16 34 -24 19 -8 37 -19 41 -25 3 -5 61 -37 128
-71 67 -33 127 -65 132 -71 15 -15 -60 1 -140 29 -119 43 -148 50 -152 36 -3
-9 -12 -9 -30 -2 -14 5 -27 8 -29 6 -4 -3 37 -28 125 -74 28 -14 50 -35 57
-53 8 -18 20 -30 32 -30 10 0 27 -9 37 -20 24 -26 7 -27 -66 -1 -30 10 -75 21
-101 25 -38 6 -46 4 -44 -8 4 -27 35 -53 79 -65 60 -17 88 -33 83 -47 -10 -26
23 -45 133 -79 62 -19 121 -35 130 -35 20 0 62 -29 44 -30 -7 0 -13 -7 -13
-16 0 -13 -10 -15 -53 -12 -47 3 -53 1 -49 -14 3 -14 -2 -18 -22 -18 -16 0
-25 -4 -21 -10 3 -6 -5 -14 -20 -20 -14 -5 -28 -17 -31 -25 -4 -8 -15 -15 -26
-15 -10 0 -16 -4 -13 -10 3 -5 16 -10 28 -10 12 0 35 -7 51 -15 15 -8 45 -15
66 -15 21 0 45 -6 52 -13 25 -24 89 -47 129 -47 36 0 40 -2 37 -22 -2 -17 -16
-26 -64 -40 -59 -17 -62 -19 -74 -62 -9 -34 -20 -48 -46 -62 -37 -20 -60 -69
-50 -108 5 -20 -1 -26 -34 -41 -36 -16 -53 -35 -32 -35 5 0 9 -7 9 -15 0 -8
-18 -21 -39 -30 -21 -8 -38 -17 -38 -20 0 -2 6 -2 13 1 8 3 19 -2 26 -9 10
-13 18 -12 61 4 70 27 84 23 27 -7 -27 -14 -47 -28 -44 -30 3 -3 19 2 36 10
40 21 58 21 41 1 -16 -19 -15 -19 47 5 38 14 53 16 56 7 3 -9 10 -9 31 1 32
14 110 16 134 3 10 -6 38 -5 71 1 29 5 55 7 58 4 3 -2 -13 -24 -35 -48 -22
-24 -43 -53 -46 -65 -4 -13 -11 -23 -16 -23 -5 0 -14 -10 -21 -21 -9 -17 -3
-15 28 10 22 17 49 33 61 36 12 2 26 6 31 9 12 8 2 -68 -15 -119 -8 -22 -14
-50 -14 -63 0 -24 -23 -75 -45 -102 -31 -38 -108 -207 -100 -219 3 -6 -3 -27
-14 -48 -14 -30 -16 -41 -7 -49 10 -9 25 4 66 52 29 35 56 64 60 64 11 0 -4
-67 -27 -125 -30 -74 -35 -123 -15 -134 14 -8 14 -14 4 -47 -6 -21 -10 -39 -8
-41 1 -2 17 17 35 42 34 48 57 53 41 9 -6 -14 -8 -29 -6 -32 4 -6 -6 -51 -30
-129 -4 -17 -2 -23 8 -23 15 0 52 56 122 182 43 77 55 89 85 83 13 -2 24 2 28
10 9 24 33 17 33 -9 0 -27 3 -31 40 -39 22 -5 29 1 55 45 42 71 94 129 95 104
0 -30 25 -3 39 43 14 48 31 62 31 27 0 -54 16 -22 43 87 16 61 32 127 37 145
10 41 19 51 29 33 5 -8 10 3 14 31 10 68 24 131 33 153 7 18 9 16 17 -15 5
-19 13 -69 16 -110 l8 -75 1 64 c1 35 4 62 6 60 3 -3 10 -38 15 -79 6 -41 15
-102 20 -135 6 -33 15 -109 21 -170 5 -60 17 -168 25 -240 8 -71 15 -136 15
-142 0 -7 5 -13 11 -13 9 0 10 46 6 172 -3 118 -1 211 9 293 7 66 11 143 8
172 -4 28 -3 69 1 90 l7 38 25 -80 c14 -44 36 -103 49 -132 13 -28 24 -57 24
-62 0 -6 5 -10 12 -9 12 3 28 -34 54 -125 9 -32 17 -57 19 -55 2 2 -5 37 -16
78 -39 149 -52 221 -41 232 7 7 16 2 27 -16 10 -14 23 -26 30 -26 8 0 17 -9
20 -20 11 -36 28 -22 22 19 -2 21 -1 44 3 50 7 12 16 -5 34 -61 7 -23 36 -23
36 -1 0 15 2 14 14 -3 13 -17 14 -15 10 26 -4 39 -3 42 8 26 43 -61 42 -49 -1
45 -27 59 -52 116 -56 129 -6 20 -5 21 14 11 13 -7 21 -8 21 -2 0 26 51 -6
120 -76 77 -79 128 -125 103 -92 -10 12 -10 18 -1 27 9 9 9 12 -2 12 -7 0 -10
3 -7 6 4 4 13 1 22 -6 8 -7 15 -10 15 -7 0 16 -55 83 -124 150 -43 42 -77 78
-77 81 1 3 -1 6 -4 6 -3 0 -10 0 -16 0 -5 0 -7 -5 -3 -11 11 -19 -39 11 -73
44 -26 24 -33 27 -33 14 0 -9 -4 -17 -8 -17 -5 0 -18 -14 -31 -31 -21 -28 -22
-35 -12 -77 6 -26 12 -58 12 -72 2 -29 -11 -153 -16 -158 -6 -7 -73 142 -99
220 -14 42 -26 91 -26 110 0 22 -3 29 -9 20 -6 -10 -10 -7 -13 12 -3 14 -1 26
3 26 5 0 9 -4 9 -8 0 -5 23 -9 50 -11 28 -1 50 0 50 3 0 3 -9 29 -21 58 -13
34 -17 54 -10 56 6 2 11 10 11 17 0 7 5 15 12 17 11 4 -8 67 -43 134 -23 45
-21 167 3 172 11 2 24 -11 39 -40 l22 -43 13 30 c11 27 10 33 -9 54 -12 13
-16 21 -9 17 6 -4 12 -3 12 3 0 5 -7 14 -16 19 -14 8 -14 10 -1 15 9 3 17 -1
20 -12 2 -10 30 -30 61 -44 44 -21 60 -34 71 -61 18 -42 20 -86 4 -86 -6 0 -8
-7 -5 -17 4 -9 1 -20 -6 -24 -9 -6 -7 -14 11 -33 21 -23 24 -23 42 -8 10 9 19
29 19 45 0 25 3 28 28 24 20 -3 34 2 49 19 11 13 18 25 15 28 -3 3 2 8 11 12
15 5 64 -34 60 -47 -1 -4 15 -19 37 -34 21 -15 48 -46 59 -68 12 -23 21 -34
21 -24 0 10 8 17 19 17 10 0 25 8 32 17 8 10 9 14 2 10 -6 -4 -14 -3 -18 3 -3
5 1 10 10 10 9 0 13 5 9 11 -4 8 -1 8 13 1 16 -9 18 -7 18 12 -1 12 -5 29 -10
37 -7 11 -6 12 7 2 8 -7 18 -10 21 -7 3 3 11 3 17 -1 9 -6 9 -10 -1 -16 -10
-6 -11 -9 -1 -9 17 0 15 -27 -4 -38 -9 -5 -16 -13 -16 -18 1 -5 -8 -8 -19 -7
-22 3 -24 -14 -4 -40 7 -10 11 -30 9 -43 -9 -48 41 -107 62 -72 4 7 3 8 -4 4
-7 -4 -12 -1 -12 7 0 8 7 18 16 21 8 3 12 2 9 -4 -3 -6 -1 -10 5 -10 6 0 10 8
9 18 -1 9 -1 24 0 32 1 13 3 13 10 1 8 -12 14 -12 33 -3 13 7 15 10 6 8 -12
-3 -15 -1 -11 9 3 8 9 12 14 9 5 -3 9 -1 9 4 0 13 38 22 42 11 2 -5 3 21 4 58
0 59 -2 70 -24 90 -14 13 -35 23 -47 23 -12 0 -34 11 -49 25 -15 14 -36 25
-47 25 -22 0 -69 28 -69 41 0 5 6 9 14 9 8 0 12 9 10 26 -1 15 4 33 12 41 8 8
12 19 9 24 -4 5 6 10 22 10 25 2 26 2 4 6 -13 3 -28 0 -34 -6 -15 -15 -27 -14
-27 4 0 8 8 15 19 15 10 0 32 7 47 15 16 8 39 15 52 15 12 0 22 4 22 9 0 5 22
20 50 33 27 14 47 28 43 31 -3 4 7 7 23 7 34 0 49 9 50 30 1 17 8 17 -163 -6
-41 -5 -55 -3 -68 10 -15 15 -15 17 7 25 13 4 29 6 36 4 6 -3 12 2 12 11 0 10
-9 16 -25 16 -15 0 -25 6 -25 14 0 8 -6 16 -12 19 -10 3 -8 9 5 24 9 11 17 27
17 36 0 12 12 17 52 19 50 3 53 5 55 31 1 15 -2 25 -6 23 -4 -3 -8 1 -8 8 0
15 188 53 206 41 15 -8 111 23 111 37 0 6 6 8 13 5 8 -3 14 1 14 9 0 9 -6 13
-15 9 -12 -5 -13 -3 -2 10 10 12 2 11 -35 -5 -26 -11 -49 -19 -51 -17 -2 2 7
14 19 27 25 28 50 90 36 90 -5 0 -14 -9 -21 -21 -13 -21 -107 -69 -136 -69
-13 0 -12 3 4 14 18 14 18 15 -11 21 -59 13 -65 13 -65 6 0 -4 -15 -8 -32 -8
-18 0 -41 -3 -50 -8 -27 -11 -22 8 10 40 l27 28 -25 -6 c-14 -4 -29 -7 -34 -7
-4 0 -6 -7 -3 -15 4 -8 1 -17 -5 -21 -6 -4 -8 -3 -5 2 3 6 2 16 -3 24 -7 11
-23 7 -86 -21 -43 -20 -82 -43 -88 -53 -6 -11 -21 -30 -34 -44 -12 -14 -20
-32 -17 -41 10 -25 -108 -123 -189 -158 -54 -22 -74 -21 -42 3 11 8 16 14 11
14 -4 0 4 11 19 25 22 20 24 26 12 31 -8 3 -20 3 -26 -1 -6 -4 -10 4 -10 20 0
15 4 24 10 20 6 -3 10 0 10 7 0 8 24 26 53 41 28 15 63 37 77 50 28 25 90 102
90 111 0 11 -55 -27 -123 -86 -35 -30 -43 -33 -52 -18 -4 6 17 32 47 58 29 26
65 59 80 75 15 15 35 27 45 28 11 0 13 3 5 6 -6 2 -9 10 -5 16 4 7 0 8 -13 3
-10 -4 -39 -9 -63 -12 -24 -2 -49 -8 -55 -13 -7 -6 -24 -15 -39 -20 -26 -10
-27 -10 -21 17 4 15 18 37 31 50 28 26 23 28 -17 7 -21 -11 -30 -12 -30 -4 0
8 -4 8 -15 -1 -8 -7 -26 -10 -40 -8 -20 4 -32 -2 -56 -33 -29 -37 -49 -49 -49
-31 0 5 31 61 69 125 38 64 65 119 60 122 -9 6 -13 -1 -10 -17 0 -5 -3 -8 -7
-8 -5 0 -39 -45 -77 -99 -69 -102 -143 -183 -131 -143 4 11 42 100 86 198 44
98 78 179 77 181 -2 1 -25 -43 -52 -98 -28 -55 -58 -107 -67 -116 -10 -9 -18
-21 -18 -27 0 -6 -11 -32 -24 -58 l-24 -47 -6 33 c-4 19 -3 51 2 73 13 58 -1
85 -16 29 -8 -33 -16 -44 -29 -42 -9 2 -19 8 -21 16 -3 8 -13 2 -27 -16 l-23
-29 -12 45 c-7 26 -10 67 -6 97 5 45 3 54 -13 63 -17 8 -20 6 -26 -20 -4 -17
-10 -28 -15 -25 -4 2 -6 -14 -5 -38 1 -23 0 -28 -2 -10 -4 30 -6 32 -26 20
-12 -7 -25 -16 -28 -20 -9 -13 -19 61 -12 93 7 36 33 49 34 17 1 -55 15 -56
17 -1 1 32 6 75 12 94 17 57 23 157 11 165 -7 4 -9 20 -5 41 4 21 2 34 -4 34
-6 0 -8 -8 -5 -19 3 -10 0 -21 -5 -25 -5 -3 -10 0 -9 7 1 39 -4 67 -14 67 -6
0 -8 -9 -4 -20 9 -27 -3 -77 -19 -83 -10 -4 -12 1 -9 16 4 18 3 19 -6 7 -8
-12 -11 -7 -10 20 0 19 4 44 8 55 4 11 6 29 3 39 -5 20 -5 20 -13 0 -4 -11 -7
12 -7 56 1 65 2 70 9 35 6 -29 7 -20 3 34 -7 109 -20 118 -27 19 -4 -45 -7
-108 -7 -138 0 -71 -9 -107 -22 -88 -10 14 -8 -6 12 -152 7 -47 12 -110 12
-140 -1 -202 -1 -212 -13 -204 -9 5 -11 -6 -6 -47 4 -30 11 -55 17 -57 5 -2
10 -24 10 -48 0 -60 -16 -48 -23 18 -5 37 -12 57 -27 67 -11 7 -20 23 -20 35
0 33 -11 66 -20 61 -15 -9 -19 10 -24 91 -2 44 -10 93 -16 109 -10 26 -15 77
-19 188 -1 16 -5 26 -10 23 -5 -3 -7 -15 -4 -26 3 -11 1 -20 -4 -20 -5 0 -20
48 -32 108 -26 120 -40 157 -41 102 0 -51 26 -225 44 -295 21 -79 22 -185 1
-185 -16 0 -35 33 -55 95 -14 42 -83 199 -100 225 -5 8 -23 40 -39 70 l-30 55
5 -57 c2 -32 2 -58 0 -58 -5 0 -42 78 -77 160 -23 57 -49 102 -49 85 1 -6 7
-21 15 -35 22 -39 18 -42 -24 -16 -21 14 -42 22 -46 18 -5 -4 -5 1 -2 10 4 11
2 17 -5 15 -7 -1 -26 24 -43 55 -33 62 -58 94 -30 39z m-110 -387 c9 -15 12
-23 6 -20 -11 7 -35 46 -28 46 3 0 12 -12 22 -26z m809 -185 c-7 -15 -10 -1
-10 53 l-1 73 10 -53 c6 -32 6 -60 1 -73z m3 -441 c-2 -13 -4 -5 -4 17 -1 22
1 32 4 23 2 -10 2 -28 0 -40z m523 12 c-16 -16 -19 -25 -11 -33 7 -7 2 -23
-16 -54 -23 -41 -24 -45 -9 -62 22 -24 21 -28 -19 -68 -19 -19 -35 -38 -35
-41 0 -4 -11 -7 -25 -7 -14 0 -23 5 -22 10 2 6 9 10 16 10 17 0 61 44 61 61 0
11 -4 12 -17 5 -32 -19 -53 -38 -53 -49 0 -6 -18 -24 -41 -40 -22 -17 -40 -33
-40 -36 3 -20 0 -26 -8 -21 -6 3 -9 14 -8 25 1 10 5 16 9 14 4 -3 8 -1 8 5 0
6 14 24 30 41 17 17 30 37 30 45 0 8 11 22 25 31 28 18 33 34 10 34 -10 0 2
22 35 63 87 107 93 113 97 100 2 -6 -5 -21 -17 -33z m-585 21 c3 -5 2 -12 -3
-15 -5 -3 -9 1 -9 9 0 17 3 19 12 6z m-433 -218 c24 -21 23 -37 -2 -30 -29 7
-25 0 9 -18 28 -14 47 -47 43 -72 -3 -16 24 -23 81 -21 54 3 69 -11 63 -52 -3
-14 -5 -31 -5 -37 -1 -18 -38 -16 -45 2 -3 9 -18 15 -35 15 -17 0 -31 6 -35
16 -5 12 -1 14 15 9 15 -5 19 -4 15 4 -4 6 -12 11 -17 11 -6 0 -22 14 -36 30
-23 28 -52 43 -38 19 4 -6 -1 -5 -12 2 -25 15 -47 49 -33 49 20 0 9 26 -17 43
-28 18 -28 18 -3 12 l25 -6 -28 26 -29 26 33 -6 c19 -3 42 -13 51 -22z m742
-40 c2 -10 -1 -26 -6 -35 -7 -14 -5 -16 8 -11 14 5 15 3 3 -18 -7 -13 -14 -26
-14 -29 -9 -38 -21 -71 -37 -100 -10 -19 -18 -40 -18 -47 0 -6 -9 -15 -20 -18
-22 -7 -20 -27 6 -90 9 -24 9 -32 -1 -42 -17 -16 -37 0 -41 34 -6 55 -23 86
-42 78 -36 -15 -47 -11 -48 20 -1 17 -4 48 -7 70 -2 22 -1 49 3 60 5 14 8 5
12 -32 5 -51 24 -83 50 -83 8 0 19 -5 25 -11 20 -20 40 10 45 69 1 6 5 12 9
12 4 0 10 14 14 30 4 17 10 30 13 30 4 0 8 14 9 30 1 20 -2 28 -8 24 -7 -4 -7
2 1 16 6 12 9 24 6 28 -3 3 1 14 11 24 18 20 23 19 27 -9z m276 -83 c-20 -13
-33 -13 -25 0 3 6 14 10 23 10 15 0 15 -2 2 -10z m-586 -50 c4 0 4 6 0 13 -5
9 -4 9 6 0 7 -6 10 -19 7 -27 -5 -13 -10 -12 -31 9 -14 14 -30 25 -36 25 -6 0
-8 5 -5 11 5 7 15 3 29 -10 12 -12 26 -21 30 -21z m749 -17 c-13 -2 -23 -9
-23 -14 0 -5 10 -9 23 -10 12 0 16 -3 9 -6 -6 -2 -10 -9 -6 -14 3 -5 -6 -9
-19 -9 -13 0 -45 -11 -71 -25 -47 -25 -116 -34 -116 -15 0 13 27 25 88 40 32
7 56 19 60 29 8 22 23 31 52 29 23 -1 24 -1 3 -5z m310 -30 c-13 -2 -35 -2
-50 0 -16 2 -5 4 22 4 28 0 40 -2 28 -4z m-867 -41 c-14 -14 -16 -14 -16 -1 0
20 23 44 29 28 2 -6 -4 -18 -13 -27z m-475 8 c1 -5 2 -16 4 -22 2 -16 -24 -60
-42 -71 -10 -6 -11 -12 -3 -22 16 -19 -5 -64 -32 -69 -54 -10 -105 -3 -117 15
-9 16 -8 19 9 19 12 0 17 5 14 14 -3 8 9 26 30 43 20 15 36 31 36 34 0 4 -19
10 -42 13 l-43 7 30 13 c17 7 31 10 33 5 4 -9 62 13 62 23 0 12 60 10 61 -2z
m249 1 c0 -5 -9 -11 -21 -14 -16 -4 -18 -3 -8 9 13 16 29 19 29 5z m91 -40 c6
-31 6 -31 -12 -15 -21 19 -26 58 -7 52 7 -3 15 -19 19 -37z m-504 23 c-3 -3
-12 -4 -19 -1 -8 3 -5 6 6 6 11 1 17 -2 13 -5z m-56 -21 c-18 -4 -21 -7 -10
-13 10 -7 7 -11 -14 -19 -26 -10 -26 -12 -11 -30 9 -11 23 -17 30 -14 25 9 14
-3 -29 -34 -41 -30 -61 -37 -101 -34 -20 1 -20 1 0 15 18 14 18 15 -6 25 -14
5 -19 10 -12 10 6 1 12 10 12 20 0 23 45 61 71 61 11 0 19 5 19 10 0 6 17 9
38 9 26 -1 30 -3 13 -6z m1008 -6 c-2 -1 -12 -9 -21 -16 -15 -12 -18 -11 -18
3 0 10 8 16 22 16 12 0 19 -1 17 -3z m136 -65 c-3 -3 -11 0 -18 7 -9 10 -8 11
6 5 10 -3 15 -9 12 -12z m-469 -30 c-9 -8 -26 10 -26 26 1 15 2 15 15 -2 8
-11 13 -21 11 -24z m518 -13 c-3 -5 0 -9 6 -9 6 0 8 -4 5 -10 -9 -14 -19 -12
-43 9 -33 28 -28 42 8 30 16 -6 27 -15 24 -20z m-1219 -39 c3 -5 1 -10 -5 -10
-6 0 -8 -4 -5 -10 7 -11 -24 -13 -50 -3 -14 5 -12 8 11 19 37 16 41 16 49 4z
m1235 -10 c13 -8 13 -10 -2 -10 -9 0 -20 5 -23 10 -8 13 5 13 25 0z m120 -10
c8 -5 11 -10 5 -10 -5 0 -17 5 -25 10 -8 5 -10 10 -5 10 6 0 17 -5 25 -10z
m-620 -410 c0 -5 -2 -10 -4 -10 -3 0 -8 5 -11 10 -3 6 -1 10 4 10 6 0 11 -4
11 -10z"/>
<path d="M2261 4594 c0 -11 3 -14 6 -6 3 7 2 16 -1 19 -3 4 -6 -2 -5 -13z"/>
<path d="M1650 4546 c0 -16 18 -31 27 -22 3 3 -2 12 -11 21 -14 14 -16 14 -16
1z"/>
<path d="M2120 4434 c-11 -67 -15 -75 -32 -71 -17 5 -19 2 -13 -31 3 -20 -1
-86 -10 -146 -18 -131 -18 -126 1 -101 12 16 17 17 23 7 6 -10 10 -8 14 8 3
12 10 19 16 15 7 -4 8 0 4 11 -4 11 -3 15 5 11 7 -5 15 13 22 50 7 31 27 104
45 161 26 80 29 99 16 85 -10 -10 -18 -22 -18 -28 -3 -25 -66 -231 -75 -242
-6 -7 -15 -13 -21 -13 -6 0 -2 7 9 15 10 8 15 14 9 13 -5 -2 -11 0 -13 5 -6
14 10 70 29 101 19 31 26 61 12 53 -9 -6 -8 103 1 138 3 13 2 26 -2 29 -5 3
-14 -29 -22 -70z"/>
<path d="M1732 4413 c-8 -8 -11 -21 -7 -31 6 -14 9 -11 16 12 10 36 8 39 -9
19z"/>
<path d="M950 4155 c13 -14 26 -25 28 -25 3 0 -5 11 -18 25 -13 14 -26 25 -28
25 -3 0 5 -11 18 -25z"/>
<path d="M2700 3915 l-25 -14 23 -1 c15 0 21 -4 16 -12 -4 -6 -3 -8 4 -4 6 3
10 15 9 26 -1 11 -1 20 -2 20 0 -1 -11 -7 -25 -15z"/>
<path d="M1180 3686 c0 -2 7 -6 15 -10 8 -3 15 -1 15 4 0 6 -7 10 -15 10 -8 0
-15 -2 -15 -4z"/>
<path d="M3058 3673 c7 -3 16 -2 19 1 4 3 -2 6 -13 5 -11 0 -14 -3 -6 -6z"/>
<path d="M3150 3660 c0 -5 5 -10 10 -10 6 0 10 5 10 10 0 6 -4 10 -10 10 -5 0
-10 -4 -10 -10z"/>
<path d="M3075 3650 c-7 -11 9 -11 45 0 24 8 24 8 -7 9 -17 1 -35 -3 -38 -9z"/>
<path d="M2453 3626 c-18 -13 -30 -26 -27 -29 10 -9 42 11 54 33 13 25 13 24
-27 -4z"/>
<path d="M3113 3600 c-13 -5 -23 -15 -23 -22 0 -9 3 -9 11 -1 6 6 18 9 25 6 8
-3 14 1 14 11 0 9 -1 16 -2 15 -2 0 -13 -4 -25 -9z"/>
<path d="M2900 3580 c0 -5 5 -10 10 -10 6 0 10 5 10 10 0 6 -4 10 -10 10 -5 0
-10 -4 -10 -10z"/>
<path d="M2916 3511 c-19 -7 -19 -8 2 -13 14 -4 20 -2 15 5 -4 7 0 8 11 4 10
-4 15 -3 11 3 -7 11 -12 12 -39 1z"/>
<path d="M3020 3372 l25 -5 -25 -7 c-25 -8 -25 -8 -2 -9 13 -1 20 -5 17 -11
-4 -6 7 -10 27 -9 32 1 32 1 8 10 -23 8 -22 8 7 6 18 -2 30 0 27 5 -3 4 5 8
17 8 46 0 11 8 -56 12 -38 3 -59 3 -45 0z"/>
<path d="M2910 3320 c0 -5 4 -10 9 -10 6 0 13 5 16 10 3 6 -1 10 -9 10 -9 0
-16 -4 -16 -10z"/>
<path d="M3105 3320 c3 -5 8 -10 11 -10 2 0 4 5 4 10 0 6 -5 10 -11 10 -5 0
-7 -4 -4 -10z"/>
<path d="M2918 3213 c-29 -7 -21 -18 26 -32 47 -13 83 -6 52 11 -9 5 -21 6
-26 3 -6 -3 -13 1 -16 9 -3 9 -9 15 -13 15 -3 -1 -14 -3 -23 -6z"/>
<path d="M2597 2889 c-4 -16 -3 -18 9 -8 7 6 11 15 8 20 -8 13 -11 11 -17 -12z"/>
<path d="M2660 2900 c-9 -6 -10 -10 -3 -10 6 0 15 5 18 10 8 12 4 12 -15 0z"/>
<path d="M2720 2641 c0 -10 7 -24 15 -31 11 -9 15 -9 15 -1 0 7 5 9 13 5 6 -4
1 5 -12 19 -29 32 -31 33 -31 8z"/>
<path d="M2855 2400 c10 -11 20 -20 23 -20 3 0 -3 9 -13 20 -10 11 -20 20 -23
20 -3 0 3 -9 13 -20z"/>
<path d="M2590 2352 c0 -8 33 -40 80 -77 20 -16 22 -16 11 -2 -14 18 -2 24 15
7 7 -7 11 -6 11 4 0 8 -4 13 -9 10 -5 -4 -8 2 -6 12 3 20 -22 27 -35 9 -4 -5
-6 1 -5 14 3 19 -2 24 -29 27 -18 2 -33 0 -33 -4z m100 -36 c0 -2 -8 -10 -17
-17 -16 -13 -17 -12 -4 4 13 16 21 21 21 13z"/>
<path d="M2340 2270 c0 -5 5 -10 11 -10 5 0 7 5 4 10 -3 6 -8 10 -11 10 -2 0
-4 -4 -4 -10z"/>
<path d="M2221 2224 c0 -11 3 -14 6 -6 3 7 2 16 -1 19 -3 4 -6 -2 -5 -13z"/>
<path d="M2720 2215 c0 -2 10 -10 23 -16 20 -11 21 -11 8 4 -13 16 -31 23 -31
12z"/>
<path d="M2240 2172 c0 -12 19 -26 26 -19 2 2 -2 10 -11 17 -9 8 -15 8 -15 2z"/>
</g>
</svg>
